<svg width="528" height="528" viewBox="0 0 528 528" version="1.1" xmlns="http://www.w3.org/2000/svg" xmlns:xlink="http://www.w3.org/1999/xlink">
<g id="Canvas" fill="none">
<g id="noun_1248513_cc">
<g id="Group">
<g id="Group_2">
<g id="Vector">
<path d="M 27.5487 0L 2.90042e-06 0L 2.90042e-06 9.53445L 27.5487 9.53445L 27.5487 0Z" transform="matrix(1.41421 1.41419 -1.41421 1.41419 329.308 315.803)" fill="#024583"/>
</g>
<g id="Vector_2">
<path d="M 71.185 102.053L 4.67294e-06 30.8708L 30.8714 -4.67285e-06L 102.051 71.1823L 71.185 102.053ZM 13.4867 30.8708L 71.185 88.5654L 88.5658 71.1823L 30.8714 13.4878L 13.4867 30.8708Z" transform="translate(323.898 323.894) scale(2)" fill="#024583"/>
</g>
<g id="Vector_3">
<path d="M 9.53577 3.06155e-06L 0 3.06155e-06L 0 34.121L 9.53577 34.121L 9.53577 3.06155e-06Z" transform="matrix(1.41421 1.41419 -1.41421 1.41419 402.873 354.61)" fill="#024583"/>
</g>
<g id="Vector_4">
<path d="M 9.53577 -6.44538e-06L 0 -6.44538e-06L 0 34.121L 9.53577 34.121L 9.53577 -6.44538e-06Z" transform="matrix(1.41421 1.41419 -1.41421 1.41419 483.798 435.532)" fill="#024583"/>
</g>
</g>
<g id="Group_3">
<g id="Vector_5">
<path d="M 28.7845 57.5771C 12.9125 57.5771 6.44544e-07 44.6635 6.44544e-07 28.7892C 6.44544e-07 12.9149 12.9125 4.83398e-07 28.7845 4.83398e-07C 44.6565 4.83398e-07 57.5703 12.9149 57.5703 28.7892C 57.5703 44.6635 44.6578 57.5771 28.7845 57.5771ZM 28.7845 9.53832C 18.1715 9.53832 9.53587 18.1738 9.53587 28.7892C 9.53587 39.4046 18.1715 48.0401 28.7845 48.0401C 39.3975 48.0401 48.0331 39.4033 48.0331 28.7892C 48.0331 18.1738 39.3975 9.53832 28.7845 9.53832Z" transform="translate(160.082 123.198) scale(2)" fill="#024583"/>
</g>
<g id="Vector_6">
<path d="M 72.0602 28.3747C 65.6211 16.7548 53.4148 9.537 40.2014 9.537C 26.9866 9.537 14.7803 16.7561 8.34521 28.3747L -2.09477e-06 23.7547C 8.11684 9.1014 23.5189 8.05664e-07 40.2014 8.05664e-07C 56.8786 8.05664e-07 72.2833 9.10272 80.4001 23.7547L 72.0602 28.3747Z" transform="translate(137.249 250.43) scale(2)" fill="#024583"/>
</g>
</g>
<g id="Vector_7">
<path d="M 108.942 217.653L 108.934 208.116C 111.984 208.113 115.064 207.971 118.094 207.69L 118.971 217.185C 115.655 217.492 112.283 217.65 108.942 217.653ZM 98.9123 217.206C 95.5766 216.905 92.2276 216.447 88.9566 215.842L 90.6872 206.465C 93.6718 207.016 96.7263 207.433 99.769 207.71L 98.9123 217.206ZM 128.922 215.803L 127.171 206.427C 130.164 205.867 133.166 205.16 136.091 204.328L 138.703 213.499C 135.495 214.414 132.205 215.189 128.922 215.803ZM 79.1713 213.564C 75.9517 212.653 72.7428 211.583 69.6341 210.38L 73.0741 201.486C 75.9055 202.583 78.8268 203.555 81.7625 204.387L 79.1713 213.564ZM 60.4375 206.331C 57.437 204.839 54.4815 203.196 51.654 201.443L 56.6794 193.335C 59.2534 194.934 61.9489 196.432 64.684 197.791L 60.4375 206.331ZM 43.3629 195.773C 40.6965 193.763 38.0934 191.606 35.6263 189.363L 42.0416 182.305C 44.2935 184.354 46.6696 186.322 49.1037 188.158L 43.3629 195.773ZM 28.5153 182.268C 26.2633 179.808 24.0985 177.213 22.0828 174.555L 29.6782 168.79C 31.5197 171.215 33.4944 173.585 35.551 175.832L 28.5153 182.268ZM 16.3829 166.282C 14.6154 163.44 12.9641 160.491 11.4737 157.516L 20.0011 153.245C 21.3581 155.958 22.8656 158.649 24.48 161.241L 16.3829 166.282ZM 7.39222 148.334C 6.18308 145.228 5.1033 142.025 4.18456 138.813L 13.3535 136.19C 14.189 139.12 15.1751 142.04 16.28 144.873L 7.39222 148.334ZM 213.53 138.587L 204.359 135.984C 205.19 133.055 205.894 130.054 206.448 127.063L 215.824 128.802C 215.214 132.083 214.445 135.374 213.53 138.587ZM 1.87055 129.031C 1.25806 125.758 0.785492 122.413 0.475286 119.085L 9.97023 118.193C 10.2554 121.231 10.683 124.286 11.2454 127.272L 1.87055 129.031ZM 217.197 118.854L 207.702 117.984C 207.975 114.967 208.115 111.887 208.115 108.825L 208.115 108.385L 217.653 108.385L 217.653 108.757C 217.653 112.178 217.499 115.551 217.197 118.854ZM 9.53727 109.045L 7.68491e-05 108.953C -0.00388323 105.559 0.14528 102.264 0.430405 99.0264L 9.93063 99.8712C 9.66927 102.828 9.5333 105.839 9.5333 108.825L 9.53727 109.045ZM 207.664 99.2468C 207.37 96.2042 206.935 93.1524 206.369 90.1732L 215.737 88.3925C 216.358 91.6568 216.838 95.003 217.156 98.3347L 207.664 99.2468ZM 11.1675 90.7922L 1.78871 89.0723C 2.388 85.8 3.14966 82.5066 4.05652 79.2845L 13.2373 81.8651C 12.4096 84.8047 11.714 87.809 11.1675 90.7922ZM 204.242 81.2618C 203.398 78.3314 202.408 75.4129 201.3 72.5815L 210.179 69.1046C 211.396 72.2053 212.481 75.4076 213.407 78.6205L 204.242 81.2618ZM 16.1268 73.1689L 7.22722 69.7462C 8.4192 66.6415 9.78147 63.5461 11.2678 60.5418L 19.811 64.7764C 18.4527 67.5167 17.2145 70.3428 16.1268 73.1689ZM 197.556 64.2193C 196.186 61.4962 194.675 58.81 193.062 56.2333L 201.146 51.1751C 202.913 53.9999 204.574 56.9435 206.075 59.928L 197.556 64.2193ZM 24.2635 56.7626L 16.1466 51.7572C 17.893 48.9245 19.7978 46.1314 21.8095 43.457L 29.4301 49.1898C 27.5965 51.6305 25.8581 54.1781 24.2635 56.7626ZM 187.842 48.6935C 186.008 46.2805 184.029 43.9151 181.96 41.6658L 188.98 35.2123C 191.248 37.6794 193.421 40.2719 195.434 42.9185L 187.842 48.6935ZM 35.2751 42.1252L 28.209 35.7179C 30.4518 33.2482 32.837 30.8524 35.2949 28.5965L 41.7393 35.6268C 39.4926 37.686 37.3199 39.8719 35.2751 42.1252ZM 175.453 35.2044C 173.197 33.1637 170.817 31.1995 168.379 29.3687L 174.108 21.7417C 176.777 23.7468 179.385 25.8997 181.852 28.1345L 175.453 35.2044ZM 48.7777 29.7449L 43.0026 22.1536C 45.6519 20.1419 48.4292 18.2213 51.2686 16.4472L 56.3229 24.5335C 53.7317 26.1532 51.1946 27.9074 48.7777 29.7449ZM 160.799 24.2062C 158.208 22.6116 155.508 21.116 152.781 19.767L 157.008 11.2174C 160 12.6971 162.96 14.3339 165.799 16.0868L 160.799 24.2062ZM 64.3117 20.0468L 60.0269 11.5262C 63.0155 10.0241 66.1043 8.64732 69.2077 7.43424L 72.6807 16.3165C 69.8506 17.4227 67.0363 18.6754 64.3117 20.0468ZM 144.383 16.0895C 141.544 15.0005 138.617 14.0303 135.686 13.2079L 138.261 4.02468C 141.473 4.92756 144.684 5.98884 147.798 7.18608L 144.383 16.0895ZM 81.3625 13.3795L 78.7291 4.21344C 81.9328 3.29472 85.2236 2.51196 88.5065 1.89156L 90.278 11.2622C 87.2815 11.8298 84.2851 12.5413 81.3625 13.3795ZM 126.757 11.1487C 123.764 10.6022 120.706 10.1904 117.671 9.92376L 118.507 0.42372C 121.835 0.71544 125.183 1.1682 128.466 1.76748L 126.757 11.1487ZM 99.3518 9.98184L 98.4529 0.4884C 101.761 0.17424 105.135 0.01056 108.482 0L 108.511 9.537C 105.453 9.54492 102.373 9.69672 99.3518 9.98184Z" transform="scale(2)" fill="#024583"/>
</g>
</g>
</g>
</g>
</svg>

